<?xml version="1.0" encoding="UTF-8"?>
<svg width="116px" height="34px" viewBox="0 0 116 34" version="1.1" xmlns="http://www.w3.org/2000/svg"
     xmlns:xlink="http://www.w3.org/1999/xlink">
    <!-- Generator: Sketch 49.3 (51167) - http://www.bohemiancoding.com/sketch -->
    <title>Eplay logo</title>
    <desc>Created with Sketch.</desc>
    <defs>
        <linearGradient x1="50.0009593%" y1="-4.058753%" x2="50.0009593%" y2="102.758513%" id="linearGradient-1">
            <stop stop-color="#EF4241" offset="0%"></stop>
            <stop stop-color="#F7267B" offset="100%"></stop>
        </linearGradient>
        <linearGradient x1="50.0004153%" y1="3.14148681%" x2="50.0004153%" y2="101.632134%" id="linearGradient-2">
            <stop stop-color="#EF4241" offset="0%"></stop>
            <stop stop-color="#F7267B" offset="100%"></stop>
        </linearGradient>
    </defs>
    <g id="Symbols" stroke="none" stroke-width="1" fill="none" fill-rule="evenodd">
        <g id="Main-Nav---Logged-out" transform="translate(-8.000000, -8.000000)">
            <g id="Main-Nav">
                <g id="Eplay-logo" transform="translate(8.000000, 8.000000)">
                    <g id="Layer_2" fill="url(#linearGradient-1)">
                        <path d="M6.58595918,0.513953488 L26.7281361,0.513953488 C30.2373333,0.513953488 33.1097143,3.39288372 33.1097143,6.90832558 L33.1097143,21.4532093 L33.1097143,27.0916744 C33.1097143,30.6086977 30.2357551,33.4860465 26.7281361,33.4860465 L6.58595918,33.4860465 C3.07755102,33.4860465 0.205170068,30.6086977 0.205170068,27.0916744 L0.205170068,6.90911628 C0.205170068,3.39130233 3.07597279,0.513953488 6.58595918,0.513953488 Z"
                              id="Shape"></path>
                    </g>
                    <g id="Layer_3" transform="translate(4.734694, 3.953488)" fill="#FFFFFF">
                        <path d="M22.640517,3.33674419 C23.2078912,3.33674419 23.6679456,2.87576744 23.6679456,2.30725581 C23.6679456,1.73874419 23.2078912,1.27776744 22.640517,1.27776744 C22.0731429,1.27776744 21.6138776,1.73874419 21.6138776,2.30725581 C21.6138776,2.87576744 22.073932,3.33674419 22.640517,3.33674419 Z M22.640517,4.31404651 C21.5341769,4.31404651 20.6385306,3.41581395 20.6385306,2.30725581 C20.6385306,1.19869767 21.5341769,0.300465116 22.640517,0.300465116 C23.746068,0.300465116 24.6432925,1.19869767 24.6432925,2.30725581 C24.6432925,3.41581395 23.7468571,4.31404651 22.640517,4.31404651 Z M23.1234558,13.0291163 C23.1234558,13.3865116 23.0989932,13.762093 23.0453333,14.1503256 C22.9971973,14.544093 22.926966,14.9433953 22.8370068,15.3545581 L6.36658503,15.3545581 C6.65855782,16.184 7.08073469,16.905907 7.6410068,17.5202791 C8.19417687,18.1346512 8.84914286,18.6130233 9.59406803,18.9530233 C10.3437279,19.2930233 11.1478367,19.4653953 12.0111293,19.4717209 C12.814449,19.4653953 13.5893605,19.3467907 14.3390204,19.108 C15.0831565,18.8692093 15.7499592,18.5347442 16.3457415,18.106186 C16.6866395,17.8539535 16.9865034,17.5819535 17.2469116,17.2822791 L21.0891156,19.7777209 C20.498068,20.4948837 19.8257415,21.1345581 19.0737143,21.6975349 C18.0849524,22.4305116 16.9951837,23.0037674 15.7988844,23.4038605 C14.6010068,23.8102791 13.3392109,24.0126977 12.0111293,24.0182326 C10.4392109,24.0182326 8.98565986,23.7549302 7.64653061,23.2362326 C6.31213605,22.7112093 5.09768707,21.9236744 4.00712925,20.8673023 C2.91814966,19.8117209 2.09668027,18.6304186 1.54903401,17.324186 C0.99507483,16.0171628 0.721251701,14.5844186 0.721251701,13.0283256 C0.721251701,11.4706512 0.99507483,10.0450233 1.54903401,8.74986047 C2.09668027,7.45469767 2.91814966,6.27893023 4.00712925,5.22413953 C5.09768707,4.16855814 6.31213605,3.38023256 7.64653061,2.8552093 C8.98565986,2.33651163 10.4392109,2.074 12.0111293,2.074 C13.5475374,2.074 14.9703129,2.34204651 16.2747211,2.87339535 C17.5846531,3.41106977 18.7817415,4.20334884 19.8707211,5.25972093 C20.9604898,6.31609302 21.7764354,7.49739535 22.313034,8.79255814 C22.8551565,10.0932558 23.1234558,11.5070233 23.1234558,13.0291163 Z M9.5222585,7.35427907 C7.86353741,8.09832558 6.51730612,9.66865116 6.28451701,11.507814 L17.7558912,11.507814 C17.5609796,9.64572093 16.2037007,8.07223256 14.5244626,7.33609302 C13.7621769,7.00795349 12.9225578,6.8347907 12.0111293,6.8347907 C11.1131156,6.84190698 10.2853333,7.01506977 9.5222585,7.35427907 Z"
                              id="Shape"></path>
                    </g>
                    <g id="Layer_4" transform="translate(39.455782, 0.000000)" fill="url(#linearGradient-2)"
                       fill-rule="nonzero">
                        <path d="M62.5137415,33.4860465 L62.7339048,32.9135814 L65.0933605,27.3557674 L56.9047075,6.64344186 L59.9388571,6.64344186 L66.5690068,23.6584651 L73.3056871,6.64344186 L76.3390476,6.64344186 L65.4232109,33.4860465 L62.5137415,33.4860465 Z M35.8905578,16.9960465 C35.8905578,17.8175814 36.0136599,18.6944651 36.2590748,19.625907 C36.506068,20.5565581 36.970068,21.4745581 37.6542313,22.3775349 C38.3368163,23.282093 39.1906395,23.9668372 40.2164898,24.4317674 C41.241551,24.8974884 42.2721361,25.1307442 43.3114014,25.1307442 C44.6513197,25.1307442 45.943102,24.7812558 47.1867483,24.0830698 C48.4303946,23.3848837 49.3797007,22.3854419 50.0362449,21.0839535 C50.692,19.7824651 51.0202721,18.4208837 51.0202721,16.9960465 C51.0202721,15.572 50.692,14.2096279 50.0362449,12.9081395 C49.3797007,11.6074419 48.4303946,10.608 47.1867483,9.90902326 C45.943102,9.21083721 44.6513197,8.86213953 43.3114014,8.86213953 C42.5467483,8.86213953 41.7402721,8.99893023 40.893551,9.27251163 C40.0468299,9.54688372 39.2119456,10.0600465 38.3920544,10.8135814 C37.5729524,11.5671163 36.9503401,12.5048837 36.526585,13.6276744 C36.1028299,14.7504651 35.8905578,15.8732558 35.8905578,16.9960465 Z M32.8564082,16.9960465 C32.8564082,15.462093 33.1302313,14.0174884 33.6762993,12.6622326 C34.2231565,11.306186 34.9751837,10.1351628 35.9315918,9.14995349 C36.8887891,8.16395349 38.0093333,7.39618605 39.2940136,6.84902326 C40.5786939,6.30106977 41.9178231,6.02748837 43.3114014,6.02748837 C44.2962177,6.02748837 45.2802449,6.16427907 46.2642721,6.43786047 C47.2475102,6.71223256 48.1218503,7.15027907 48.8880816,7.7527907 C49.6535238,8.35530233 50.2406259,9.01316279 50.650966,9.7255814 L50.650966,6.64423256 L53.6851156,6.64423256 L53.6851156,22.7080465 C53.6851156,23.6126047 53.8082177,24.2696744 54.0544218,24.6800465 C54.2998367,25.0904186 54.6967619,25.296 55.2428299,25.296 L56.3097143,25.2137674 L56.3097143,27.513907 C55.8173061,27.7321395 55.174966,27.8420465 54.3826939,27.8420465 C53.4807347,27.8420465 52.7563265,27.6514884 52.2094694,27.2664186 C51.4171973,26.663907 50.9524082,25.6786977 50.8158912,24.3092093 C50.3503129,25.0485116 49.7087619,25.719814 48.8888707,26.3223256 C48.0681905,26.9248372 47.1599184,27.3502326 46.1624762,27.5953488 C45.1642449,27.8420465 44.2141497,27.9653953 43.3121905,27.9653953 C41.9186122,27.9653953 40.579483,27.691814 39.2948027,27.1438605 C38.0101224,26.595907 36.8895782,25.8289302 35.932381,24.8429302 C34.9759728,23.8577209 34.2239456,22.6866977 33.6770884,21.3306512 C33.1294422,19.9746047 32.8564082,18.53 32.8564082,16.9960465 Z M24.3678912,22.1316279 L24.3678912,0.513953488 L27.4020408,0.513953488 L27.4020408,21.9260465 C27.4020408,23.0488372 27.5993197,23.8640465 27.9962449,24.370093 C28.3931701,24.8777209 29.0560272,25.1307442 29.9856054,25.1307442 C30.6689796,25.1307442 31.1605986,25.1030698 31.4612517,25.0485116 L31.4612517,27.6372558 C31.0793197,27.8554884 30.4503946,27.9653953 29.5752653,27.9653953 C27.6892789,27.9653953 26.3493605,27.4451163 25.5570884,26.4037674 C24.7640272,25.3632093 24.3678912,23.9391628 24.3678912,22.1316279 Z M3.00495238,16.9960465 C3.00495238,18.4208837 3.33322449,19.7824651 3.98897959,21.0839535 C4.64552381,22.3854419 5.59482993,23.3848837 6.83926531,24.0830698 C8.08212245,24.7812558 9.37390476,25.1307442 10.7138231,25.1307442 C11.4792653,25.1307442 12.2857415,24.9939535 13.1332517,24.7195814 C13.9799728,24.4452093 14.814068,23.9328372 15.6339592,23.1785116 C16.4538503,22.4257674 17.0756735,21.488 17.4986395,20.3644186 C17.9231837,19.2416279 18.1346667,18.1188372 18.1346667,16.9952558 C18.1346667,16.1737209 18.0123537,15.2976279 17.7661497,14.366186 C17.5199456,13.4347442 17.0551565,12.5175349 16.3725714,11.6137674 C15.6884082,10.71 14.8353741,10.0252558 13.8095238,9.55953488 C12.7844626,9.09381395 11.7522993,8.86134884 10.7138231,8.86134884 C9.37469388,8.86134884 8.08291156,9.21004651 6.83926531,9.90823256 C5.59482993,10.6072093 4.64552381,11.6066512 3.98897959,12.9073488 C3.33322449,14.2096279 3.00495238,15.572 3.00495238,16.9960465 Z M0.340108844,33.4860465 L0.340108844,6.64344186 L3.3742585,6.64344186 L3.3742585,9.7247907 C3.78380952,9.01237209 4.37170068,8.35451163 5.13793197,7.752 C5.90179592,7.15027907 6.77692517,6.71144186 7.76095238,6.43706977 C8.74497959,6.16348837 9.72979592,6.02669767 10.713034,6.02669767 C12.1074014,6.02669767 13.4457415,6.30027907 14.7312109,6.84823256 C16.0158912,7.39539535 17.1364354,8.16316279 18.0928435,9.14916279 C19.0492517,10.1343721 19.802068,11.306186 20.3481361,12.6614419 C20.8949932,14.0166977 21.1688163,15.4613023 21.1688163,16.9952558 C21.1688163,18.5284186 20.8949932,19.973814 20.3481361,21.3290698 C19.802068,22.685907 19.0492517,23.8561395 18.0928435,24.8413488 C17.1364354,25.8273488 16.0158912,26.5943256 14.7312109,27.1422791 C13.4457415,27.6902326 12.1066122,27.963814 10.713034,27.963814 C9.7290068,27.963814 8.74497959,27.8270233 7.76095238,27.5526512 C6.77692517,27.2782791 5.90258503,26.8410233 5.13793197,26.2385116 C4.37170068,25.6352093 3.78380952,24.9781395 3.3742585,24.2665116 L3.3742585,33.4836744 L0.340108844,33.4836744 L0.340108844,33.4860465 Z"
                              id="Shape"></path>
                    </g>
                </g>
            </g>
        </g>
    </g>
</svg>