<svg xmlns="http://www.w3.org/2000/svg" width="564" height="161" fill="none" viewBox="0 0 564 161"><path fill="#F62C6F" fill-rule="evenodd" d="M31.134 0H129.414C146.537 0 160.552 14.0472 160.552 31.2002V102.17V129.681C160.552 146.842 146.529 160.882 129.414 160.882H31.134C14.0153 160.882 0 146.842 0 129.681V31.2041C0 14.0395 14.0076 0 31.134 0Z" clip-rule="evenodd"/><path fill="#fff" fill-rule="evenodd" stroke="#fff" d="M132.572 33.0638C135.34 33.0638 137.585 30.8145 137.585 28.0406C137.585 25.2666 135.34 23.0174 132.572 23.0174C129.803 23.0174 127.562 25.2666 127.562 28.0406C127.562 30.8145 129.807 33.0638 132.572 33.0638ZM132.572 37.8324C127.173 37.8324 122.803 33.4496 122.803 28.0406C122.803 22.6316 127.173 18.2488 132.572 18.2488C137.966 18.2488 142.344 22.6316 142.344 28.0406C142.344 33.4496 137.97 37.8324 132.572 37.8324ZM134.928 80.3561C134.928 82.0999 134.809 83.9325 134.547 85.8268C134.312 87.7481 133.969 89.6965 133.53 91.7027H53.1657C54.5903 95.7498 56.6502 99.2722 59.384 102.27C62.0831 105.268 65.2789 107.602 68.9136 109.261C72.5715 110.92 76.495 111.761 80.7073 111.792C84.6269 111.761 88.408 111.182 92.0658 110.017C95.6967 108.852 98.9502 107.22 101.857 105.129C103.521 103.898 104.984 102.571 106.254 101.109L125.002 113.285C122.118 116.784 118.837 119.905 115.168 122.652C110.343 126.229 105.026 129.026 99.189 130.978C93.3441 132.961 87.1874 133.949 80.7073 133.976C73.0374 133.976 65.945 132.691 59.411 130.16C52.9 127.598 46.9743 123.756 41.6531 118.601C36.3396 113.451 32.3314 107.687 29.6593 101.313C26.9563 94.9357 25.6202 87.9449 25.6202 80.3522C25.6202 72.7518 26.9563 65.7957 29.6593 59.4762C32.3314 53.1566 36.3396 47.4197 41.6531 42.273C46.9743 37.1225 52.9 33.276 59.411 30.7142C65.945 28.1833 73.0374 26.9024 80.7073 26.9024C88.2039 26.9024 95.1461 28.2103 101.511 30.803C107.902 33.4264 113.743 37.2922 119.057 42.4466C124.374 47.601 128.355 53.365 130.974 59.6845C133.619 66.031 134.928 72.9293 134.928 80.3561ZM68.5632 52.6667C60.4698 56.2971 53.9011 63.9592 52.7652 72.9331H108.738C107.787 63.8474 101.164 56.1698 92.9706 52.5779C89.2512 50.9768 85.1544 50.1319 80.7073 50.1319C76.3256 50.1666 72.2865 51.0115 68.5632 52.6667Z" clip-rule="evenodd"/><path fill="#F62C6F" d="M496.542 160.882L497.616 158.088L509.129 130.97L469.173 29.9078H483.978L516.329 112.93L549.199 29.9078H564L510.738 160.882H496.542ZM366.638 80.4216C366.638 84.4301 367.239 88.7087 368.437 93.2535C369.642 97.7945 371.906 102.274 375.244 106.68C378.575 111.093 382.741 114.434 387.746 116.703C392.748 118.975 397.776 120.113 402.847 120.113C409.385 120.113 415.688 118.408 421.756 115.001C427.824 111.595 432.456 106.718 435.66 100.368C438.86 94.0174 440.461 87.3738 440.461 80.4216C440.461 73.4732 438.86 66.8257 435.66 60.4753C432.456 54.1288 427.824 49.2522 421.756 45.8416C415.688 42.435 409.385 40.7336 402.847 40.7336C399.116 40.7336 395.181 41.401 391.05 42.7359C386.918 44.0746 382.845 46.5785 378.844 50.2553C374.847 53.932 371.81 58.5077 369.742 63.9862C367.674 69.4646 366.638 74.9431 366.638 80.4216ZM351.834 80.4216C351.834 72.9369 353.17 65.8882 355.834 59.2755C358.503 52.6589 362.172 46.9451 366.839 42.1379C371.509 37.3269 376.977 33.5807 383.245 30.9109C389.513 28.2372 396.047 26.9024 402.847 26.9024C407.652 26.9024 412.454 27.5698 417.255 28.9047C422.053 30.2434 426.319 32.3808 430.058 35.3207C433.793 38.2605 436.657 41.4704 438.659 44.9466V29.9116H453.464V108.292C453.464 112.706 454.065 115.912 455.266 117.914C456.463 119.917 458.4 120.92 461.065 120.92L466.27 120.519V131.742C463.868 132.806 460.733 133.343 456.868 133.343C452.467 133.343 448.932 132.413 446.264 130.534C442.398 127.594 440.13 122.787 439.464 116.105C437.192 119.712 434.062 122.988 430.062 125.928C426.057 128.867 421.625 130.943 416.759 132.139C411.888 133.343 407.252 133.945 402.851 133.945C396.051 133.945 389.517 132.61 383.249 129.936C376.981 127.262 371.513 123.52 366.843 118.709C362.176 113.902 358.507 108.188 355.838 101.572C353.166 94.9549 351.834 87.9062 351.834 80.4216ZM310.416 105.48V0H325.22V104.477C325.22 109.955 326.183 113.933 328.12 116.402C330.056 118.879 333.291 120.113 337.826 120.113C341.161 120.113 343.559 119.978 345.026 119.712V132.344C343.163 133.408 340.094 133.945 335.824 133.945C326.622 133.945 320.084 131.406 316.218 126.325C312.348 121.248 310.416 114.299 310.416 105.48ZM206.179 80.4216C206.179 87.3738 207.781 94.0174 210.98 100.368C214.184 106.718 218.816 111.595 224.888 115.001C230.952 118.408 237.255 120.113 243.793 120.113C247.528 120.113 251.463 119.446 255.598 118.107C259.73 116.768 263.799 114.268 267.8 110.588C271.8 106.915 274.834 102.339 276.898 96.8569C278.97 91.3785 280.002 85.9 280.002 80.4177C280.002 76.4092 279.405 72.1344 278.204 67.5896C277.002 63.0448 274.734 58.5694 271.404 54.1596C268.066 49.7499 263.903 46.4088 258.898 44.1364C253.896 41.864 248.86 40.7297 243.793 40.7297C237.259 40.7297 230.956 42.4311 224.888 45.8378C218.816 49.2483 214.184 54.1249 210.98 60.4715C207.781 66.8257 206.179 73.4732 206.179 80.4216ZM193.176 160.882V29.9078H207.981V44.9427C209.979 41.4666 212.848 38.2567 216.586 35.3168C220.313 32.3808 224.583 30.2396 229.385 28.9008C234.186 27.5659 238.992 26.8985 243.789 26.8985C250.593 26.8985 257.123 28.2334 263.395 30.907C269.663 33.5768 275.131 37.323 279.798 42.134C284.464 46.9412 288.137 52.6589 290.802 59.2716C293.47 65.8843 294.806 72.933 294.806 80.4177C294.806 87.8985 293.47 94.9511 290.802 101.564C288.137 108.184 284.464 113.894 279.798 118.701C275.131 123.512 269.663 127.255 263.395 129.928C257.123 132.602 250.589 133.937 243.789 133.937C238.988 133.937 234.186 133.269 229.385 131.931C224.583 130.592 220.317 128.458 216.586 125.519C212.848 122.575 209.979 119.369 207.981 115.897V160.87H193.176V160.882Z"/></svg>